<?xml version="1.0" encoding="utf-8"?>
<!-- Generator: Adobe Illustrator 27.0.1, SVG Export Plug-In . SVG Version: 6.00 Build 0)  -->
<svg version="1.1" id="Layer_1" xmlns="http://www.w3.org/2000/svg" xmlns:xlink="http://www.w3.org/1999/xlink" x="0px" y="0px"
	 viewBox="0 0 32 32" style="enable-background:new 0 0 32 32;" xml:space="preserve">
<style type="text/css">
	.st0{fill:#FFFFFF;}
</style>
<g>
	<path d="M24,32H8c-4.4,0-8-3.6-8-8L0,8c0-4.4,3.6-8,8-8l16,0c4.4,0,8,3.6,8,8v16C32,28.4,28.4,32,24,32z"/>
	<g>
		<circle class="st0" cx="24.6" cy="16" r="1.9"/>
		<path class="st0" d="M12.9,23.4c-4.1,0-7.4-3.3-7.4-7.4c0-4,3.1-7.2,7.1-7.4v3.2c-2.2,0.2-3.9,2-3.9,4.2c0,2.3,1.9,4.2,4.2,4.2
			s4.2-1.9,4.2-4.2c0-4,3.1-7.2,7.1-7.4v3.2c-2.2,0.2-3.9,2-3.9,4.2C20.3,20.1,17,23.4,12.9,23.4z"/>
	</g>
</g>
</svg>
