<svg width="55" height="34" viewBox="0 0 55 34" fill="none" xmlns="http://www.w3.org/2000/svg">
<path d="M27.4978 0C12.027 0 0.346104 15.9612 0.346104 15.9612C-0.132994 16.5988 -0.113661 17.4831 0.397666 18.0948C0.930476 18.8117 12.3926 34 27.4977 34C42.1991 34 53.457 19.6037 54.5422 18.1695C55.0771 17.5921 55.1502 16.7271 54.7248 16.0682C54.6969 16.0274 54.6668 15.9845 54.6367 15.9458C54.4992 15.7591 42.8761 0.00161509 27.4976 0.00161509L27.4978 0ZM27.4978 3.43864C38.4224 3.43864 48.1871 13.6988 51.0443 16.9958C48.1869 20.2971 38.4224 30.5656 27.4978 30.5656C16.5754 30.5656 6.81078 20.2967 3.95134 16.9958C6.81089 13.6988 16.5754 3.43864 27.4978 3.43864ZM27.4978 6.73134C21.8455 6.73134 17.2327 11.3527 17.2327 17.0003C17.2327 22.6497 21.8453 27.2671 27.4978 27.2671C33.1503 27.2671 37.7608 22.6501 37.7608 17.0003C37.7608 11.3506 33.1503 6.73134 27.4978 6.73134ZM27.4978 10.1657C31.2898 10.1657 34.3233 13.2073 34.3233 17.0003C34.3233 20.7953 31.2919 23.8328 27.4978 23.8328C23.7059 23.8328 20.6592 20.7955 20.6592 17.0003C20.6592 13.2051 23.7035 10.1657 27.4978 10.1657Z" fill="url(#paint0_linear_3074_204)"/>
<defs>
<linearGradient id="paint0_linear_3074_204" x1="-1.67738e-06" y1="-7.62069" x2="22.1775" y2="44.362" gradientUnits="userSpaceOnUse">
<stop stop-color="#FFF625"/>
<stop offset="0.270833" stop-color="#CCEA7F"/>
<stop offset="0.640625" stop-color="#A7E2BE"/>
<stop offset="1" stop-color="#98DED9"/>
</linearGradient>
</defs>
</svg>
