<svg width="44" height="44" viewBox="0 0 44 44" fill="none" xmlns="http://www.w3.org/2000/svg">
<path id="Vector" d="M7.87869 0C3.53613 0 0 3.53552 0 7.87696V36.123C0 40.4647 3.5363 44 7.87869 44H36.1244C40.467 44 44 40.4645 44 36.123V7.87696C44 3.53535 40.4672 0 36.1244 0H7.87869ZM7.87869 2.75003H36.1244C38.9902 2.75003 41.2595 5.0102 41.2595 7.87696V36.123C41.2595 38.9899 38.9902 41.25 36.1244 41.25H7.87869C5.01289 41.25 2.74007 38.9898 2.74007 36.123V7.87696C2.74007 5.01178 5.0128 2.75003 7.87869 2.75003ZM16.4074 8.049C16.0412 8.049 15.6905 8.1951 15.4327 8.45463L12.1422 11.7444L10.3371 9.93622C9.8007 9.40341 8.93428 9.40341 8.39792 9.93622C8.13834 10.194 7.9922 10.5447 7.9922 10.9107C7.9922 11.2751 8.13833 11.6257 8.39792 11.8835L11.1675 14.6559H11.1658C11.4254 14.9137 11.776 15.0598 12.1423 15.0598C12.5084 15.0598 12.8591 14.9137 13.117 14.6559L17.3822 10.3934C17.9151 9.8571 17.9151 8.99086 17.3822 8.45463C17.1243 8.1951 16.7736 8.049 16.4074 8.049ZM22.2146 10.182V10.1803C21.8501 10.1803 21.4994 10.3229 21.2398 10.5808C20.9819 10.8369 20.8358 11.1858 20.8341 11.5501C20.8324 11.918 20.9768 12.2686 21.2364 12.5281C21.496 12.7877 21.8484 12.932 22.2146 12.9303H34.6404C35.0049 12.9303 35.3539 12.7842 35.6117 12.5247C35.8679 12.2652 36.0123 11.9145 36.0105 11.5502C36.0071 10.7957 35.3968 10.1837 34.6404 10.1803L22.2146 10.182ZM16.4074 18.4924C16.0412 18.4924 15.6905 18.6385 15.4327 18.898L12.1422 22.1878L10.3371 20.3796V20.3813C9.8007 19.8485 8.93428 19.8485 8.39792 20.3813C7.86329 20.9176 7.86329 21.7839 8.39792 22.3201L11.1675 25.0993H11.1658C11.4254 25.3589 11.776 25.505 12.1423 25.505C12.5084 25.505 12.8591 25.3589 13.117 25.0993L17.3822 20.8368C17.9151 20.3005 17.9151 19.4343 17.3822 18.898C17.1243 18.6385 16.7736 18.4924 16.4074 18.4924ZM22.2146 20.6271V20.6254C21.8501 20.6237 21.4994 20.7681 21.2398 21.0242C20.9819 21.282 20.8358 21.6309 20.8341 21.9953C20.8324 22.3614 20.9768 22.7137 21.2364 22.9733C21.496 23.2311 21.8484 23.3772 22.2146 23.3755H34.6404C35.0049 23.3737 35.3539 23.2276 35.6117 22.9681C35.8679 22.7103 36.0123 22.3597 36.0105 21.9953C36.0071 21.239 35.3968 20.6289 34.6404 20.6254L22.2146 20.6271ZM16.4074 28.9375C16.0412 28.9375 15.6905 29.0836 15.4327 29.3432L12.1422 32.6329L10.3371 30.8248C9.8007 30.292 8.93428 30.292 8.39792 30.8248C7.86329 31.361 7.86329 32.2273 8.39792 32.7653L11.1675 35.5479L11.1658 35.5462C11.4254 35.8058 11.776 35.9519 12.1423 35.9519C12.5084 35.9519 12.8591 35.8058 13.117 35.5462L17.3822 31.282C17.9151 30.7457 17.9151 29.8795 17.3822 29.3432C17.1243 29.0837 16.7736 28.9375 16.4074 28.9375ZM22.2146 31.0723V31.0706C21.8501 31.0688 21.4994 31.2115 21.2398 31.4693C20.9819 31.7254 20.8358 32.0743 20.8341 32.4387C20.8324 32.8065 20.9768 33.1571 21.2364 33.4167C21.496 33.6762 21.8484 33.8206 22.2146 33.8206H34.6404C35.0049 33.8189 35.3539 33.6728 35.6117 33.4132C35.8679 33.1537 36.0123 32.8048 36.0105 32.4387C36.0071 31.6842 35.3968 31.0723 34.6404 31.0706L22.2146 31.0723Z" fill="url(#paint0_linear_3074_198)"/>
<defs>
<linearGradient id="paint0_linear_3074_198" x1="-1.3419e-06" y1="-9.86207" x2="37.1724" y2="44" gradientUnits="userSpaceOnUse">
<stop stop-color="#FFF625"/>
<stop offset="0.270833" stop-color="#CCEA7F"/>
<stop offset="0.640625" stop-color="#A7E2BE"/>
<stop offset="1" stop-color="#98DED9"/>
</linearGradient>
</defs>
</svg>
