<svg width="48" height="46" viewBox="0 0 48 46" fill="none" xmlns="http://www.w3.org/2000/svg">
<path d="M23.6119 44.5509C23.6119 43.7503 24.2584 43.1022 25.0571 43.1022C30.374 43.1022 35.4754 40.9844 39.2368 37.2137C42.9961 33.4431 45.1088 28.3319 45.1088 23C45.1088 17.668 42.9962 12.5542 39.2345 8.78622C35.4752 5.01556 30.374 2.89775 25.0548 2.89775C19.7379 2.89775 14.6365 5.0155 10.8751 8.78622C7.11584 12.5569 5.0031 17.668 5.0031 23C5.01013 23.3897 4.86256 23.7654 4.59086 24.0424C4.31917 24.3218 3.94676 24.4791 3.55791 24.4791C3.16909 24.4791 2.7967 24.3218 2.52495 24.0424C2.25325 23.7654 2.10569 23.3898 2.11272 23C2.11272 16.9005 4.52988 11.0516 8.83259 6.73602C13.1353 2.42297 18.9721 0 25.0576 0C31.1424 0 36.9773 2.42297 41.2801 6.73602C45.5828 11.0514 48 16.8999 48 23C48 29.1001 45.5828 34.9483 41.2801 39.2639C36.9774 43.577 31.143 45.9999 25.0576 45.9999C24.2589 45.9999 23.6119 45.3492 23.6119 44.5509ZM25.0571 11.8547V11.8523C24.2585 11.8523 23.6119 12.5003 23.6119 13.301V23.0002C23.6119 23.3829 23.7619 23.7492 24.0312 24.0215L30.585 30.5911C30.8544 30.8681 31.2244 31.0254 31.6109 31.0278C31.9973 31.0301 32.3674 30.8775 32.6415 30.6028C32.9132 30.3304 33.0678 29.9571 33.0631 29.5697C33.0608 29.1823 32.9038 28.8137 32.6274 28.5414L26.5 22.3992V13.3034C26.5 12.5028 25.8535 11.8547 25.0571 11.8547ZM0.0304366 30.5439C0.0304366 31.3421 0.676881 31.9901 1.47563 31.9901H9.17947C9.56829 31.9995 9.94302 31.8493 10.2194 31.5769C10.4982 31.3046 10.6528 30.9313 10.6528 30.5415C10.6528 30.1541 10.4982 29.7808 10.2194 29.5084C9.94306 29.236 9.56832 29.0858 9.17947 29.0951H1.47563C1.0915 29.0951 0.723771 29.2478 0.454424 29.5178C0.182727 29.7901 0.0304366 30.1588 0.0304366 30.5439ZM1.47563 46H18.1383C18.937 46 19.5835 45.3497 19.5835 44.5513C19.5835 43.7507 18.9371 43.1027 18.1383 43.1027H1.47563C0.676941 43.1027 0.0304366 43.7507 0.0304366 44.5513C0.0304366 45.3496 0.676881 46 1.47563 46ZM1.47563 38.9965L13.6574 38.9942C14.0462 39.0036 14.4209 38.8533 14.6974 38.5809C14.9761 38.3086 15.133 37.9353 15.133 37.5478C15.133 37.1581 14.9761 36.7848 14.6974 36.5124C14.421 36.2401 14.0462 36.0898 13.6574 36.0992H1.47563C1.08681 36.0898 0.712078 36.2401 0.435656 36.5124C0.156931 36.7848 0 37.1581 0 37.5478C0 37.9352 0.156931 38.3085 0.435656 38.5809C0.712042 38.8533 1.08678 39.0035 1.47563 38.9942V38.9965Z" fill="url(#paint0_linear_3074_210)"/>
<defs>
<linearGradient id="paint0_linear_3074_210" x1="-1.46389e-06" y1="-10.3103" x2="38.2498" y2="47.5225" gradientUnits="userSpaceOnUse">
<stop stop-color="#FFF625"/>
<stop offset="0.270833" stop-color="#CCEA7F"/>
<stop offset="0.640625" stop-color="#A7E2BE"/>
<stop offset="1" stop-color="#98DED9"/>
</linearGradient>
</defs>
</svg>
