<svg width="40" height="40" viewBox="0 0 40 40" fill="none" xmlns="http://www.w3.org/2000/svg">
<mask id="mask0_548_101" style="mask-type:alpha" maskUnits="userSpaceOnUse" x="0" y="0" width="40" height="40">
<rect width="40" height="40" fill="#D9D9D9"/>
</mask>
<g mask="url(#mask0_548_101)">
<path d="M26.9572 21.6669H8.33219C7.85997 21.6669 7.46414 21.5071 7.14469 21.1877C6.82525 20.8682 6.66553 20.4724 6.66553 20.0002C6.66553 19.528 6.82525 19.1321 7.14469 18.8127C7.46414 18.4932 7.85997 18.3335 8.33219 18.3335H26.9572L18.7905 10.1668C18.4572 9.83352 18.2975 9.44463 18.3114 9.00018C18.3253 8.55574 18.4989 8.16685 18.8322 7.83352C19.1655 7.52796 19.5544 7.36824 19.9989 7.35435C20.4433 7.34046 20.8322 7.50018 21.1655 7.83352L32.1655 18.8335C32.3322 19.0002 32.4503 19.1807 32.5197 19.3752C32.5891 19.5696 32.6239 19.778 32.6239 20.0002C32.6239 20.2224 32.5891 20.4307 32.5197 20.6252C32.4503 20.8196 32.3322 21.0002 32.1655 21.1669L21.1655 32.1669C20.86 32.4724 20.478 32.6252 20.0197 32.6252C19.5614 32.6252 19.1655 32.4724 18.8322 32.1669C18.4989 31.8335 18.3322 31.4377 18.3322 30.9794C18.3322 30.521 18.4989 30.1252 18.8322 29.7919L26.9572 21.6669Z" fill="white"/>
</g>
</svg>
