<svg width="32" height="32" viewBox="0 0 32 32" fill="none" xmlns="http://www.w3.org/2000/svg">
<mask id="mask0_829_6557" style="mask-type:alpha" maskUnits="userSpaceOnUse" x="0" y="0" width="32" height="32">
<rect width="32" height="32" fill="#D9D9D9"/>
</mask>
<g mask="url(#mask0_829_6557)">
<path d="M21.5654 17.3335H6.66536C6.28759 17.3335 5.97092 17.2057 5.71536 16.9501C5.45981 16.6946 5.33203 16.3779 5.33203 16.0001C5.33203 15.6224 5.45981 15.3057 5.71536 15.0501C5.97092 14.7946 6.28759 14.6668 6.66536 14.6668H21.5654L15.032 8.13348C14.7654 7.86681 14.6376 7.5557 14.6487 7.20015C14.6598 6.84459 14.7987 6.53348 15.0654 6.26681C15.332 6.02237 15.6431 5.89459 15.9987 5.88348C16.3543 5.87237 16.6654 6.00015 16.932 6.26681L25.732 15.0668C25.8654 15.2001 25.9598 15.3446 26.0154 15.5001C26.0709 15.6557 26.0987 15.8224 26.0987 16.0001C26.0987 16.1779 26.0709 16.3446 26.0154 16.5001C25.9598 16.6557 25.8654 16.8001 25.732 16.9335L16.932 25.7335C16.6876 25.9779 16.382 26.1001 16.0154 26.1001C15.6487 26.1001 15.332 25.9779 15.0654 25.7335C14.7987 25.4668 14.6654 25.1501 14.6654 24.7835C14.6654 24.4168 14.7987 24.1001 15.0654 23.8335L21.5654 17.3335Z" fill="white"/>
</g>
</svg>
