<?xml version="1.0" encoding="utf-8"?>
<!-- Generator: Adobe Illustrator 27.0.1, SVG Export Plug-In . SVG Version: 6.00 Build 0)  -->
<svg version="1.1" id="Layer_1" xmlns="http://www.w3.org/2000/svg" xmlns:xlink="http://www.w3.org/1999/xlink" x="0px" y="0px"
	 viewBox="0 0 1920 182.1" style="enable-background:new 0 0 1920 182.1;" xml:space="preserve" fill="#fff">
<g>
	<g>
		<path d="M310.3,95.5c0-34.7,23.3-61.1,61-61.1c33.2,0,54.9,18.3,58.4,47.7h-27.6c-2.5-14.9-13.9-23.6-30.6-23.6
			c-20.1,0-33.5,12.7-33.5,37c0,24.4,13.4,37,33.5,37c16.7,0,28.1-8.7,30.6-23.6h27.6c-3.5,29.6-25.3,47.9-58.4,47.9
			C333.6,156.8,310.3,130.4,310.3,95.5z"/>
		<path d="M467.3,36.6h57.8l34,118h-28.5L520,116.8H472l-10.6,37.8h-28L467.3,36.6z M513.3,93.4l-13.9-49.9h-6.9l-13.9,49.9H513.3z"
			/>
		<path d="M566.1,36.6h27v62.3c0,21.3,1.8,34.2,26.3,34.2c24.4,0,26.6-12.9,26.6-34.2V36.6h27v74.2c0,29.6-18.6,45.9-53.6,45.9
			c-34.8,0-53.2-16.2-53.2-45.9V36.6z"/>
		<path d="M745.1,156.8c-40.4,0-57.9-17.4-57.9-47.7h27.6c0,17.9,8,25.3,31,25.3c16.2,0,23.3-3.9,23.3-12.6c0-5.4-3.9-9.4-12.2-11.6
			l-38-10c-19.9-5.2-26.6-16.9-26.6-31.6c0-22.3,16.6-34.2,46.5-34.2c35.8,0,53.8,16.9,53.8,42.4h-27.6c0-14.1-8.2-20.3-25.8-20.3
			c-12.6,0-19.3,3.5-19.3,11.6c0,4.5,2.7,8,11.2,10.4l37.2,9.2c19.3,4.9,28.5,16.1,28.5,33C796.7,142.8,781.6,156.8,745.1,156.8z"/>
		<path d="M835.4,36.6h57.8l34,118h-28.5l-10.5-37.8h-48.1l-10.6,37.8h-28L835.4,36.6z M881.4,93.4l-13.9-49.9h-6.9l-13.9,49.9
			H881.4z"/>
		<path d="M937.2,140.4V36.6H964V131h57.4v23.6h-69.8C942.4,154.7,937.2,149.8,937.2,140.4z"/>
		<path d="M1076.7,36.6h85.6v23.3h-58.6v31h54.4v22.6h-54.4v41.2h-27V36.6z"/>
		<path d="M1232,34.4c37.5,0,60.3,26.5,60.3,61.1c0,34.8-22.8,61.3-60.3,61.3c-37.7,0-60.6-26.5-60.6-61.3
			C1171.4,60.9,1194.4,34.4,1232,34.4z M1232,132.6c21.9,0,32.7-14.1,32.7-37c0-22.9-10.9-37-32.7-37c-21.9,0-33,14.2-33,37
			C1199,118.5,1210.1,132.6,1232,132.6z"/>
		<path d="M1306.7,36.6h27v62.3c0,21.3,1.8,34.2,26.3,34.2c24.4,0,26.6-12.9,26.6-34.2V36.6h27v74.2c0,29.6-18.6,45.9-53.6,45.9
			c-34.8,0-53.2-16.2-53.2-45.9V36.6z"/>
		<path d="M1433.8,36.6h52.9l35.5,111.2h6.7l-5-16.6V36.6h26.8v118h-52.9l-35.5-111.2h-6.9l5.2,16.6v94.6h-26.8V36.6z"/>
		<path d="M1572.7,36.6h43.4c31.6,0,64.5,8.2,64.5,58.9c0,50.9-32.8,59.1-64.5,59.1h-43.4V36.6z M1616,131
			c20.4,0,37.5-1.2,37.5-35.5c0-34.3-17.2-35.5-37.5-35.5h-16.6v71H1616z"/>
		<path d="M1697.6,36.6h50.1c26.8,0,51.2,5.5,51.2,31.5c0,19.3-14.9,24.8-26.3,26.5v6.7h12.7c9.5,0,14.6,6,14.6,16.1v37.3h-26.6
			v-41.5h-48.7v41.5h-27V36.6z M1747.7,89.7c15.1,0,24.4-1.2,24.4-15.1s-10-14.6-24.4-14.6h-23.1v29.6H1747.7z"/>
		<path d="M1919.5,36.6l-30,71.5h-13.9v46.5h-26.8v-46.5h-14.1l-29.6-71.5h28.6l25,65.3h6.9l25.1-65.3H1919.5z"/>
	</g>
	<g>
		<g>
			<circle cx="233.2" cy="90.5" r="23.7"/>
			<path d="M91,181c-49.9,0-90.5-40.6-90.5-90.5C0.5,42,38.8,2.3,86.7,0.1V39c-26.5,2.2-47.4,24.4-47.4,51.5
				c0,28.5,23.2,51.7,51.7,51.7s51.7-23.2,51.7-51.7c0-48.5,38.3-88.2,86.2-90.4V39c-26.5,2.2-47.4,24.4-47.4,51.5
				C181.5,140.4,140.9,181,91,181z"/>
		</g>
	</g>
</g>
</svg>
