<svg width="25" height="24" viewBox="0 0 25 24" fill="none" xmlns="http://www.w3.org/2000/svg">
<mask id="mask0_829_6345" style="mask-type:alpha" maskUnits="userSpaceOnUse" x="0" y="0" width="25" height="24">
<rect x="0.136719" width="24" height="24" fill="#D9D9D9"/>
</mask>
<g mask="url(#mask0_829_6345)">
<path d="M19.7367 21L13.4367 14.7C12.9367 15.1 12.3617 15.4167 11.7117 15.65C11.0617 15.8833 10.3701 16 9.63672 16C7.82005 16 6.28255 15.3708 5.02422 14.1125C3.76589 12.8542 3.13672 11.3167 3.13672 9.5C3.13672 7.68333 3.76589 6.14583 5.02422 4.8875C6.28255 3.62917 7.82005 3 9.63672 3C11.4534 3 12.9909 3.62917 14.2492 4.8875C15.5076 6.14583 16.1367 7.68333 16.1367 9.5C16.1367 10.2333 16.0201 10.925 15.7867 11.575C15.5534 12.225 15.2367 12.8 14.8367 13.3L21.1367 19.6L19.7367 21ZM9.63672 14C10.8867 14 11.9492 13.5625 12.8242 12.6875C13.6992 11.8125 14.1367 10.75 14.1367 9.5C14.1367 8.25 13.6992 7.1875 12.8242 6.3125C11.9492 5.4375 10.8867 5 9.63672 5C8.38672 5 7.32422 5.4375 6.44922 6.3125C5.57422 7.1875 5.13672 8.25 5.13672 9.5C5.13672 10.75 5.57422 11.8125 6.44922 12.6875C7.32422 13.5625 8.38672 14 9.63672 14Z" fill="white"/>
</g>
</svg>
